<?xml version="1.0" encoding="UTF-8"?>
<!DOCTYPE svg PUBLIC "-//W3C//DTD SVG 1.1//EN" "http://www.w3.org/Graphics/SVG/1.1/DTD/svg11.dtd">
<svg xmlns="http://www.w3.org/2000/svg" version="1.1" width="512px" height="512px" style="shape-rendering:geometricPrecision; text-rendering:geometricPrecision; image-rendering:optimizeQuality; fill-rule:evenodd; clip-rule:evenodd" xmlns:xlink="http://www.w3.org/1999/xlink">
<g><path style="opacity:0.149" fill="#71ca84" d="M 509.5,130.5 C 506.417,131.066 503.417,131.066 500.5,130.5C 498.889,131.32 498.222,132.654 498.5,134.5C 496.167,134.5 493.833,134.5 491.5,134.5C 491.67,135.822 491.337,136.989 490.5,138C 488.19,138.497 485.857,138.663 483.5,138.5C 483.5,139.833 483.5,141.167 483.5,142.5C 481.143,142.337 478.81,142.503 476.5,143C 475.833,144 475.167,145 474.5,146C 471.854,146.497 469.187,146.664 466.5,146.5C 466.5,147.5 466.5,148.5 466.5,149.5C 463.5,149.5 460.5,149.5 457.5,149.5C 457.511,147.983 458.177,146.816 459.5,146C 461.473,145.505 463.473,145.338 465.5,145.5C 465.33,144.178 465.663,143.011 466.5,142C 470.234,142.088 473.234,140.755 475.5,138C 477.473,137.505 479.473,137.338 481.5,137.5C 481.33,136.178 481.663,135.011 482.5,134C 484.81,133.503 487.143,133.337 489.5,133.5C 489.433,130.234 491.099,128.734 494.5,129C 500.081,123.99 505.081,124.49 509.5,130.5 Z"/></g>
<g><path style="opacity:0.243" fill="#68c682" d="M 504.5,142.5 C 502.314,144.634 499.981,146.801 497.5,149C 496.207,149.49 494.873,149.657 493.5,149.5C 493.67,150.822 493.337,151.989 492.5,153C 490.19,153.497 487.857,153.663 485.5,153.5C 485.5,154.833 485.5,156.167 485.5,157.5C 484.167,157.5 482.833,157.5 481.5,157.5C 481.67,158.822 481.337,159.989 480.5,161C 478.19,161.497 475.857,161.663 473.5,161.5C 473.5,162.833 473.5,164.167 473.5,165.5C 472.022,165.238 470.689,165.571 469.5,166.5C 464.971,170.197 460.305,173.697 455.5,177C 453.527,177.495 451.527,177.662 449.5,177.5C 449.5,178.833 449.5,180.167 449.5,181.5C 448.167,181.5 446.833,181.5 445.5,181.5C 445.567,184.766 443.901,186.266 440.5,186C 437.378,188.193 434.378,190.526 431.5,193C 429.527,193.495 427.527,193.662 425.5,193.5C 425.5,194.833 425.5,196.167 425.5,197.5C 424.167,197.5 422.833,197.5 421.5,197.5C 420.549,196.081 420.216,194.415 420.5,192.5C 421.833,192.5 423.167,192.5 424.5,192.5C 424.5,191.167 424.5,189.833 424.5,188.5C 427.167,188.5 429.833,188.5 432.5,188.5C 432.5,187.167 432.5,185.833 432.5,184.5C 433.833,184.5 435.167,184.5 436.5,184.5C 436.5,183.167 436.5,181.833 436.5,180.5C 439.167,180.5 441.833,180.5 444.5,180.5C 444.167,177.5 445.5,176.167 448.5,176.5C 448.5,175.167 448.5,173.833 448.5,172.5C 450.527,172.662 452.527,172.495 454.5,172C 457.811,164.83 463.478,160.83 471.5,160C 472.337,158.989 472.67,157.822 472.5,156.5C 475.85,156.665 479.183,156.498 482.5,156C 481.346,155.086 481.513,154.253 483,153.5C 483.333,153.833 483.667,154.167 484,154.5C 484.251,152.567 484.751,150.734 485.5,149C 489.723,146.905 493.056,143.905 495.5,140C 496.833,139.667 498.167,139.333 499.5,139C 500.945,135.919 502.945,135.253 505.5,137C 500.951,138.592 500.617,140.426 504.5,142.5 Z"/></g>
<g><path style="opacity:0.998" fill="#24b14d" d="M 326.5,254.5 C 324.374,255.126 322.707,256.459 321.5,258.5C 317.202,258.602 313.868,260.435 311.5,264C 309.167,265 306.833,266 304.5,267C 302.963,268.11 302.297,269.61 302.5,271.5C 300.436,271.687 298.436,272.187 296.5,273C 295.331,274.836 293.664,276.002 291.5,276.5C 290.614,277.325 290.281,278.325 290.5,279.5C 285.021,282.476 279.355,285.31 273.5,288C 272.663,289.011 272.33,290.178 272.5,291.5C 271.167,291.5 269.833,291.5 268.5,291.5C 268.5,292.833 268.5,294.167 268.5,295.5C 265.167,295.5 263.5,297.167 263.5,300.5C 256.923,299.432 253.257,302.098 252.5,308.5C 250.143,308.337 247.81,308.503 245.5,309C 244.663,310.011 244.33,311.178 244.5,312.5C 241.5,312.167 240.167,313.5 240.5,316.5C 238.143,316.337 235.81,316.503 233.5,317C 232.897,319.071 231.564,320.238 229.5,320.5C 227.824,321.183 227.157,322.517 227.5,324.5C 225.167,324.5 222.833,324.5 220.5,324.5C 220.5,325.5 220.5,326.5 220.5,327.5C 217.679,327.539 215.012,328.205 212.5,329.5C 208.568,331.762 205.235,334.762 202.5,338.5C 199.169,338.86 196.503,340.36 194.5,343C 186.594,346.784 178.928,350.784 171.5,355C 170.663,356.011 170.33,357.178 170.5,358.5C 167.916,358.569 165.916,359.735 164.5,362C 162.5,362.333 160.5,362.667 158.5,363C 153.055,368.385 146.722,372.219 139.5,374.5C 133.175,369.211 127.009,363.545 121,357.5C 120.517,356.552 120.351,355.552 120.5,354.5C 119.07,354.579 117.736,354.246 116.5,353.5C 107.484,345.756 99.1511,337.422 91.5,328.5C 87.1757,324.676 83.0091,320.676 79,316.5C 78.8882,313.553 77.3882,312.22 74.5,312.5C 74.6495,311.448 74.4828,310.448 74,309.5C 67.2294,302.877 61.3961,295.544 56.5,287.5C 54.1112,284.6 51.1112,282.767 47.5,282C 44.4507,277.949 40.784,274.616 36.5,272C 33.5278,267.117 29.8611,262.783 25.5,259C 23.5204,257.175 21.1871,256.341 18.5,256.5C 16.3323,250.831 13.6656,245.498 10.5,240.5C 6.47091,240.943 4.47091,239.109 4.5,235C 6.80982,234.503 9.14316,234.337 11.5,234.5C 11.5,236.167 11.5,237.833 11.5,239.5C 14.1667,239.5 16.8333,239.5 19.5,239.5C 19.3505,240.552 19.5172,241.552 20,242.5C 22.1667,243.333 23.6667,244.833 24.5,247C 26.5,247.333 28.5,247.667 30.5,248C 34.0845,249.981 37.7512,251.814 41.5,253.5C 43.6074,254.468 45.9407,254.802 48.5,254.5C 48.3505,255.552 48.5172,256.552 49,257.5C 51.4286,258.029 53.2619,259.363 54.5,261.5C 56.4086,262.348 58.4086,262.682 60.5,262.5C 60.5,263.833 60.5,265.167 60.5,266.5C 62.8333,266.5 65.1667,266.5 67.5,266.5C 67.3505,267.552 67.5172,268.552 68,269.5C 70.124,270.227 72.2906,270.894 74.5,271.5C 75.3857,272.325 75.719,273.325 75.5,274.5C 78.1667,274.5 80.8333,274.5 83.5,274.5C 83.5,275.5 83.5,276.5 83.5,277.5C 87.1507,277.162 88.8174,278.828 88.5,282.5C 91.1667,282.5 93.8333,282.5 96.5,282.5C 96.3077,285.809 97.6411,288.309 100.5,290C 104.137,289.684 106.804,291.018 108.5,294C 111.521,294.867 114.188,294.367 116.5,292.5C 117.167,292.5 117.5,292.833 117.5,293.5C 116.566,294.568 116.232,295.901 116.5,297.5C 119.95,296.756 121.616,298.09 121.5,301.5C 123.806,301.993 126.139,302.326 128.5,302.5C 128.5,303.833 128.5,305.167 128.5,306.5C 131.5,306.5 134.5,306.5 137.5,306.5C 137.5,307.5 137.5,308.5 137.5,309.5C 140.247,309.813 142.914,309.48 145.5,308.5C 144.209,307.473 144.209,306.473 145.5,305.5C 146.167,305.167 146.833,304.833 147.5,304.5C 150.475,306.195 154.141,306.861 158.5,306.5C 162.176,304.769 165.842,302.936 169.5,301C 172.063,299.921 174.729,299.421 177.5,299.5C 177.5,298.5 177.5,297.5 177.5,296.5C 180.247,296.813 182.914,296.48 185.5,295.5C 189.267,293.62 192.933,291.453 196.5,289C 200.137,289.316 202.804,287.982 204.5,285C 207.966,285.122 210.632,283.789 212.5,281C 216.248,281.22 219.248,279.887 221.5,277C 223.256,276.798 224.922,276.298 226.5,275.5C 230.033,272.724 233.7,270.224 237.5,268C 238.167,267 238.833,266 239.5,265C 243.222,264.762 246.889,264.262 250.5,263.5C 251.386,262.675 251.719,261.675 251.5,260.5C 253.857,260.663 256.19,260.497 258.5,260C 261.622,257.807 264.622,255.474 267.5,253C 272.092,252.027 276.425,250.527 280.5,248.5C 280.33,247.178 280.663,246.011 281.5,245C 287.36,245.693 292.026,243.693 295.5,239C 297.927,237.409 300.593,236.575 303.5,236.5C 303.5,234.833 303.5,233.167 303.5,231.5C 308.921,228.835 314.921,227.335 321.5,227C 323.026,225.113 325.026,224.113 327.5,224C 328.337,222.989 328.67,221.822 328.5,220.5C 330.527,220.662 332.527,220.495 334.5,220C 337.492,217.89 340.825,216.557 344.5,216C 346.481,213.391 349.148,212.224 352.5,212.5C 352.5,211.5 352.5,210.5 352.5,209.5C 357.213,209.657 360.88,207.824 363.5,204C 367.166,203.334 370.666,202.167 374,200.5C 377.528,197.998 381.028,195.498 384.5,193C 387.226,192.818 389.893,192.318 392.5,191.5C 394.416,189.683 396.749,188.516 399.5,188C 400.337,186.989 400.67,185.822 400.5,184.5C 403.167,184.5 405.833,184.5 408.5,184.5C 408.286,182.856 408.62,181.356 409.5,180C 414.567,179.096 419.567,177.929 424.5,176.5C 424.5,175.167 424.5,173.833 424.5,172.5C 426.527,172.662 428.527,172.495 430.5,172C 434.12,170.197 437.453,168.031 440.5,165.5C 443.107,164.682 445.774,164.182 448.5,164C 454.25,160.646 460.083,157.479 466,154.5C 466.49,155.793 466.657,157.127 466.5,158.5C 463.188,160.477 459.521,161.977 455.5,163C 452.81,166.86 449.143,169.527 444.5,171C 440.941,174.886 436.608,177.553 431.5,179C 430.663,180.011 430.33,181.178 430.5,182.5C 424.944,184.857 419.611,187.69 414.5,191C 412.607,193.303 410.607,195.47 408.5,197.5C 406.604,198.466 404.604,198.799 402.5,198.5C 402.5,199.833 402.5,201.167 402.5,202.5C 400.599,202.433 398.766,202.767 397,203.5C 391.762,208.205 385.929,212.038 379.5,215C 376.93,217.114 374.597,219.447 372.5,222C 367.47,223.014 363.47,225.681 360.5,230C 358.423,230.192 356.423,230.692 354.5,231.5C 348.766,236.217 342.766,240.717 336.5,245C 334.655,246.128 332.655,246.628 330.5,246.5C 329.618,249.385 328.284,252.052 326.5,254.5 Z"/></g>
<g><path style="opacity:0.412" fill="#66c683" d="M 457.5,149.5 C 456.316,150.688 456.316,151.855 457.5,153C 453.874,153.278 451.874,155.112 451.5,158.5C 447.509,159.493 443.509,160.493 439.5,161.5C 437.742,161.408 436.076,161.075 434.5,160.5C 434.577,159.25 435.244,158.417 436.5,158C 438.134,157.506 439.801,157.34 441.5,157.5C 441.33,156.178 441.663,155.011 442.5,154C 446.234,154.088 449.234,152.755 451.5,150C 453.473,149.505 455.473,149.338 457.5,149.5 Z"/></g>
<g><path style="opacity:0.49" fill="#68c682" d="M 433.5,161.5 C 434.451,162.919 434.784,164.585 434.5,166.5C 431.833,166.5 429.167,166.5 426.5,166.5C 426.67,167.822 426.337,168.989 425.5,170C 422.175,169.775 419.842,171.108 418.5,174C 415.854,174.497 413.187,174.664 410.5,174.5C 410.5,175.5 410.5,176.5 410.5,177.5C 408.208,177.756 406.041,177.423 404,176.5C 403.167,178.5 402.333,180.5 401.5,182.5C 399.697,183.137 398.364,184.303 397.5,186C 392.46,187.746 387.46,189.413 382.5,191C 380.632,193.789 377.966,195.122 374.5,195C 371.486,198.034 367.819,199.201 363.5,198.5C 363.67,199.822 363.337,200.989 362.5,202C 360.527,202.495 358.527,202.662 356.5,202.5C 356.5,203.833 356.5,205.167 356.5,206.5C 352.36,205.715 349.027,206.881 346.5,210C 344.19,210.497 341.857,210.663 339.5,210.5C 339.67,211.822 339.337,212.989 338.5,214C 335.854,214.497 333.187,214.664 330.5,214.5C 330.5,215.5 330.5,216.5 330.5,217.5C 328.473,217.338 326.473,217.505 324.5,218C 323.62,219.356 323.286,220.856 323.5,222.5C 318.963,221.886 314.963,222.886 311.5,225.5C 309.793,225.272 308.126,224.938 306.5,224.5C 306.577,223.25 307.244,222.417 308.5,222C 310.473,221.505 312.473,221.338 314.5,221.5C 314.5,220.5 314.5,219.5 314.5,218.5C 318.335,218.583 321.335,217.083 323.5,214C 328.033,212.003 332.7,210.17 337.5,208.5C 339.425,205.828 342.092,204.828 345.5,205.5C 348.167,205.5 350.833,205.5 353.5,205.5C 353.448,203.097 353.781,200.764 354.5,198.5C 358.022,198.13 361.022,196.63 363.5,194C 365.473,193.505 367.473,193.338 369.5,193.5C 369.33,192.178 369.663,191.011 370.5,190C 373.611,189.556 376.277,188.223 378.5,186C 380.81,185.503 383.143,185.337 385.5,185.5C 385.33,184.178 385.663,183.011 386.5,182C 388.81,181.503 391.143,181.337 393.5,181.5C 393.33,180.178 393.663,179.011 394.5,178C 397.146,177.503 399.813,177.336 402.5,177.5C 402.5,176.5 402.5,175.5 402.5,174.5C 404.806,174.007 407.139,173.674 409.5,173.5C 409.33,172.178 409.663,171.011 410.5,170C 414.234,170.088 417.234,168.755 419.5,166C 422.904,165.986 425.57,164.653 427.5,162C 429.473,161.505 431.473,161.338 433.5,161.5 Z"/></g>
<g><path style="opacity:0.229" fill="#7bc9a6" d="M 354.5,198.5 C 353.781,200.764 353.448,203.097 353.5,205.5C 350.833,205.5 348.167,205.5 345.5,205.5C 345.511,203.983 346.177,202.816 347.5,202C 349.97,201.011 352.303,199.845 354.5,198.5 Z"/></g>
<g><path style="opacity:0.129" fill="#7cbe95" d="M 409.5,205.5 C 407.14,208.206 404.473,210.706 401.5,213C 400.207,213.49 398.873,213.657 397.5,213.5C 397.241,217.068 395.241,218.401 391.5,217.5C 392.038,215.883 392.371,214.216 392.5,212.5C 394.167,212.5 395.833,212.5 397.5,212.5C 397.5,211.5 397.5,210.5 397.5,209.5C 400.167,209.167 402.833,208.833 405.5,208.5C 405.5,207.5 405.5,206.5 405.5,205.5C 406.833,205.5 408.167,205.5 409.5,205.5 Z"/></g>
<g><path style="opacity:0.537" fill="#5ac274" d="M 421.5,198.5 C 419.609,201.172 416.942,202.172 413.5,201.5C 413.5,202.833 413.5,204.167 413.5,205.5C 412.167,205.5 410.833,205.5 409.5,205.5C 408.167,205.5 406.833,205.5 405.5,205.5C 405.5,206.5 405.5,207.5 405.5,208.5C 402.833,208.833 400.167,209.167 397.5,209.5C 397.5,210.5 397.5,211.5 397.5,212.5C 395.833,212.5 394.167,212.5 392.5,212.5C 392.371,214.216 392.038,215.883 391.5,217.5C 389.824,218.183 389.157,219.517 389.5,221.5C 388.167,221.5 386.833,221.5 385.5,221.5C 385.67,222.822 385.337,223.989 384.5,225C 381.596,225.133 379.262,226.3 377.5,228.5C 376.656,226.241 374.989,225.241 372.5,225.5C 372.5,226.5 372.5,227.5 372.5,228.5C 369.115,228.025 366.782,229.358 365.5,232.5C 363.929,233.309 362.262,233.643 360.5,233.5C 360.5,234.833 360.5,236.167 360.5,237.5C 359.5,237.5 358.5,237.5 357.5,237.5C 357.5,238.833 357.5,240.167 357.5,241.5C 356.038,242.458 354.705,243.624 353.5,245C 352.207,245.49 350.873,245.657 349.5,245.5C 349.67,246.822 349.337,247.989 348.5,249C 346.19,249.497 343.857,249.663 341.5,249.5C 341.5,250.833 341.5,252.167 341.5,253.5C 340.167,253.5 338.833,253.5 337.5,253.5C 337.616,256.91 335.95,258.244 332.5,257.5C 332.5,258.5 332.5,259.5 332.5,260.5C 330.04,260.699 327.707,261.365 325.5,262.5C 322.826,264.577 320.159,266.744 317.5,269C 316.207,269.49 314.873,269.657 313.5,269.5C 313.771,271.38 313.104,272.713 311.5,273.5C 306.795,271.846 302.795,273.013 299.5,277C 298.552,277.483 297.552,277.649 296.5,277.5C 296.59,280.641 295.59,283.308 293.5,285.5C 292.167,285.5 290.833,285.5 289.5,285.5C 289.616,288.91 287.95,290.244 284.5,289.5C 284.5,290.5 284.5,291.5 284.5,292.5C 282.194,292.993 279.861,293.326 277.5,293.5C 277.5,294.833 277.5,296.167 277.5,297.5C 274.039,296.889 271.372,298.056 269.5,301C 268.207,301.49 266.873,301.657 265.5,301.5C 265.649,302.552 265.483,303.552 265,304.5C 262.571,305.029 260.738,306.363 259.5,308.5C 257.591,309.348 255.591,309.682 253.5,309.5C 253.649,310.552 253.483,311.552 253,312.5C 250.638,313.352 248.805,314.852 247.5,317C 245.527,317.495 243.527,317.662 241.5,317.5C 241.5,318.833 241.5,320.167 241.5,321.5C 238.376,321.132 236.043,322.298 234.5,325C 232.866,325.494 231.199,325.66 229.5,325.5C 229.5,323.833 229.5,322.167 229.5,320.5C 231.564,320.238 232.897,319.071 233.5,317C 235.81,316.503 238.143,316.337 240.5,316.5C 240.167,313.5 241.5,312.167 244.5,312.5C 244.33,311.178 244.663,310.011 245.5,309C 247.81,308.503 250.143,308.337 252.5,308.5C 253.257,302.098 256.923,299.432 263.5,300.5C 263.5,297.167 265.167,295.5 268.5,295.5C 268.5,294.167 268.5,292.833 268.5,291.5C 269.833,291.5 271.167,291.5 272.5,291.5C 272.33,290.178 272.663,289.011 273.5,288C 279.355,285.31 285.021,282.476 290.5,279.5C 290.281,278.325 290.614,277.325 291.5,276.5C 293.664,276.002 295.331,274.836 296.5,273C 298.436,272.187 300.436,271.687 302.5,271.5C 302.297,269.61 302.963,268.11 304.5,267C 306.833,266 309.167,265 311.5,264C 313.868,260.435 317.202,258.602 321.5,258.5C 322.707,256.459 324.374,255.126 326.5,254.5C 329.935,252.947 333.268,251.114 336.5,249C 337.793,248.51 339.127,248.343 340.5,248.5C 340.5,247.167 340.5,245.833 340.5,244.5C 342.824,244.338 344.491,243.172 345.5,241C 347.788,240.178 350.122,239.511 352.5,239C 358.466,234.542 364.133,229.875 369.5,225C 371.134,224.506 372.801,224.34 374.5,224.5C 374.102,220.241 376.102,218.408 380.5,219C 383.463,217.039 386.129,214.706 388.5,212C 393.821,211.012 398.155,208.512 401.5,204.5C 402.736,203.754 404.07,203.421 405.5,203.5C 405.5,202.5 405.5,201.5 405.5,200.5C 408.167,200.5 410.833,200.5 413.5,200.5C 413.633,197.104 414.633,196.771 416.5,199.5C 418.071,198.691 419.738,198.357 421.5,198.5 Z"/></g>
<g><path style="opacity:0.207" fill="#7acd96" d="M 377.5,228.5 C 376.432,229.434 375.099,229.768 373.5,229.5C 373.616,232.91 371.95,234.244 368.5,233.5C 368.5,234.5 368.5,235.5 368.5,236.5C 366.194,236.993 363.861,237.326 361.5,237.5C 361.833,240.5 360.5,241.833 357.5,241.5C 357.5,240.167 357.5,238.833 357.5,237.5C 358.5,237.5 359.5,237.5 360.5,237.5C 360.5,236.167 360.5,234.833 360.5,233.5C 362.262,233.643 363.929,233.309 365.5,232.5C 366.782,229.358 369.115,228.025 372.5,228.5C 372.5,227.5 372.5,226.5 372.5,225.5C 374.989,225.241 376.656,226.241 377.5,228.5 Z"/></g>
<g><path style="opacity:0.349" fill="#63c67c" d="M 305.5,225.5 C 306.791,226.542 306.791,227.708 305.5,229C 303.576,229.179 301.909,229.346 300.5,229.5C 302.005,230.842 302.672,232.508 302.5,234.5C 300.143,234.337 297.81,234.503 295.5,235C 294.707,236.085 294.04,237.252 293.5,238.5C 291.089,239.088 289.089,240.255 287.5,242C 284.518,242.498 281.518,242.665 278.5,242.5C 278.5,243.833 278.5,245.167 278.5,246.5C 275.482,246.335 272.482,246.502 269.5,247C 267.632,249.789 264.966,251.122 261.5,251C 259.292,253.889 256.292,255.222 252.5,255C 251.197,258.044 248.864,259.211 245.5,258.5C 245.67,259.822 245.337,260.989 244.5,262C 240.811,262.725 237.811,262.225 235.5,260.5C 237.075,258.059 239.408,256.893 242.5,257C 245.423,253.827 249.089,252.66 253.5,253.5C 253.5,252.167 253.5,250.833 253.5,249.5C 255.167,249.5 256.833,249.5 258.5,249.5C 258.5,248.5 258.5,247.5 258.5,246.5C 262.592,246.49 265.926,244.99 268.5,242C 272.248,242.22 275.248,240.887 277.5,238C 281.7,236.796 285.7,235.129 289.5,233C 290.047,232.075 290.713,231.242 291.5,230.5C 296.586,229.683 301.253,228.016 305.5,225.5 Z"/></g>
<g><path style="opacity:0.169" fill="#93ca99" d="M 1.5,241.5 C 4.30849,241.693 6.97516,242.36 9.5,243.5C 9.5,245.5 9.5,247.5 9.5,249.5C 6.5,249.833 5.16667,248.5 5.5,245.5C 2.5,245.833 1.16667,244.5 1.5,241.5 Z"/></g>
<g><path style="opacity:0.698" fill="#36b75b" d="M 509.5,130.5 C 509.665,133.518 509.498,136.518 509,139.5C 507.729,140.883 506.229,141.883 504.5,142.5C 500.617,140.426 500.951,138.592 505.5,137C 502.945,135.253 500.945,135.919 499.5,139C 498.167,139.333 496.833,139.667 495.5,140C 493.056,143.905 489.723,146.905 485.5,149C 484.751,150.734 484.251,152.567 484,154.5C 483.667,154.167 483.333,153.833 483,153.5C 481.513,154.253 481.346,155.086 482.5,156C 479.183,156.498 475.85,156.665 472.5,156.5C 472.67,157.822 472.337,158.989 471.5,160C 463.478,160.83 457.811,164.83 454.5,172C 452.527,172.495 450.527,172.662 448.5,172.5C 448.5,173.833 448.5,175.167 448.5,176.5C 445.5,176.167 444.167,177.5 444.5,180.5C 441.833,180.5 439.167,180.5 436.5,180.5C 436.5,181.833 436.5,183.167 436.5,184.5C 435.167,184.5 433.833,184.5 432.5,184.5C 432.5,185.833 432.5,187.167 432.5,188.5C 429.833,188.5 427.167,188.5 424.5,188.5C 424.5,189.833 424.5,191.167 424.5,192.5C 423.167,192.5 421.833,192.5 420.5,192.5C 420.216,194.415 420.549,196.081 421.5,197.5C 421.5,197.833 421.5,198.167 421.5,198.5C 419.738,198.357 418.071,198.691 416.5,199.5C 414.633,196.771 413.633,197.104 413.5,200.5C 410.833,200.5 408.167,200.5 405.5,200.5C 405.5,201.5 405.5,202.5 405.5,203.5C 404.07,203.421 402.736,203.754 401.5,204.5C 398.155,208.512 393.821,211.012 388.5,212C 386.129,214.706 383.463,217.039 380.5,219C 376.102,218.408 374.102,220.241 374.5,224.5C 372.801,224.34 371.134,224.506 369.5,225C 364.133,229.875 358.466,234.542 352.5,239C 350.122,239.511 347.788,240.178 345.5,241C 344.491,243.172 342.824,244.338 340.5,244.5C 340.5,245.833 340.5,247.167 340.5,248.5C 339.127,248.343 337.793,248.51 336.5,249C 333.268,251.114 329.935,252.947 326.5,254.5C 328.284,252.052 329.618,249.385 330.5,246.5C 332.655,246.628 334.655,246.128 336.5,245C 342.766,240.717 348.766,236.217 354.5,231.5C 356.423,230.692 358.423,230.192 360.5,230C 363.47,225.681 367.47,223.014 372.5,222C 374.597,219.447 376.93,217.114 379.5,215C 385.929,212.038 391.762,208.205 397,203.5C 398.766,202.767 400.599,202.433 402.5,202.5C 402.5,201.167 402.5,199.833 402.5,198.5C 404.604,198.799 406.604,198.466 408.5,197.5C 410.607,195.47 412.607,193.303 414.5,191C 419.611,187.69 424.944,184.857 430.5,182.5C 430.33,181.178 430.663,180.011 431.5,179C 436.608,177.553 440.941,174.886 444.5,171C 449.143,169.527 452.81,166.86 455.5,163C 459.521,161.977 463.188,160.477 466.5,158.5C 466.657,157.127 466.49,155.793 466,154.5C 460.083,157.479 454.25,160.646 448.5,164C 445.774,164.182 443.107,164.682 440.5,165.5C 437.453,168.031 434.12,170.197 430.5,172C 428.527,172.495 426.527,172.662 424.5,172.5C 424.5,173.833 424.5,175.167 424.5,176.5C 419.567,177.929 414.567,179.096 409.5,180C 408.62,181.356 408.286,182.856 408.5,184.5C 405.833,184.5 403.167,184.5 400.5,184.5C 400.67,185.822 400.337,186.989 399.5,188C 396.749,188.516 394.416,189.683 392.5,191.5C 389.893,192.318 387.226,192.818 384.5,193C 381.028,195.498 377.528,197.998 374,200.5C 370.666,202.167 367.166,203.334 363.5,204C 360.88,207.824 357.213,209.657 352.5,209.5C 352.5,210.5 352.5,211.5 352.5,212.5C 349.148,212.224 346.481,213.391 344.5,216C 340.825,216.557 337.492,217.89 334.5,220C 332.527,220.495 330.527,220.662 328.5,220.5C 328.67,221.822 328.337,222.989 327.5,224C 325.026,224.113 323.026,225.113 321.5,227C 314.921,227.335 308.921,228.835 303.5,231.5C 303.5,233.167 303.5,234.833 303.5,236.5C 300.593,236.575 297.927,237.409 295.5,239C 292.026,243.693 287.36,245.693 281.5,245C 280.663,246.011 280.33,247.178 280.5,248.5C 276.425,250.527 272.092,252.027 267.5,253C 264.622,255.474 261.622,257.807 258.5,260C 256.19,260.497 253.857,260.663 251.5,260.5C 251.719,261.675 251.386,262.675 250.5,263.5C 246.889,264.262 243.222,264.762 239.5,265C 238.833,266 238.167,267 237.5,268C 233.7,270.224 230.033,272.724 226.5,275.5C 224.922,276.298 223.256,276.798 221.5,277C 219.248,279.887 216.248,281.22 212.5,281C 210.632,283.789 207.966,285.122 204.5,285C 202.804,287.982 200.137,289.316 196.5,289C 192.933,291.453 189.267,293.62 185.5,295.5C 182.914,296.48 180.247,296.813 177.5,296.5C 177.5,297.5 177.5,298.5 177.5,299.5C 174.729,299.421 172.063,299.921 169.5,301C 165.842,302.936 162.176,304.769 158.5,306.5C 158.5,305.5 158.5,304.5 158.5,303.5C 160.861,303.326 163.194,302.993 165.5,302.5C 165.33,301.178 165.663,300.011 166.5,299C 169.146,298.503 171.813,298.336 174.5,298.5C 174.5,297.167 174.5,295.833 174.5,294.5C 177.167,294.5 179.833,294.5 182.5,294.5C 182.45,292.41 183.45,291.077 185.5,290.5C 186.452,288.955 186.785,287.288 186.5,285.5C 187.5,283.833 188.833,282.5 190.5,281.5C 190.415,282.995 191.081,283.995 192.5,284.5C 196.597,282.815 200.931,281.982 205.5,282C 207.786,279.179 210.786,278.013 214.5,278.5C 214.5,277.5 214.5,276.5 214.5,275.5C 219.595,275.228 224.261,273.728 228.5,271C 230.029,267.971 232.362,265.805 235.5,264.5C 234.873,263.583 234.539,262.583 234.5,261.5C 234.5,260.833 234.833,260.5 235.5,260.5C 237.811,262.225 240.811,262.725 244.5,262C 245.337,260.989 245.67,259.822 245.5,258.5C 248.864,259.211 251.197,258.044 252.5,255C 256.292,255.222 259.292,253.889 261.5,251C 264.966,251.122 267.632,249.789 269.5,247C 272.482,246.502 275.482,246.335 278.5,246.5C 278.5,245.167 278.5,243.833 278.5,242.5C 281.518,242.665 284.518,242.498 287.5,242C 289.089,240.255 291.089,239.088 293.5,238.5C 294.04,237.252 294.707,236.085 295.5,235C 297.81,234.503 300.143,234.337 302.5,234.5C 302.672,232.508 302.005,230.842 300.5,229.5C 301.909,229.346 303.576,229.179 305.5,229C 306.791,227.708 306.791,226.542 305.5,225.5C 305.5,224.833 305.833,224.5 306.5,224.5C 308.126,224.938 309.793,225.272 311.5,225.5C 314.963,222.886 318.963,221.886 323.5,222.5C 323.286,220.856 323.62,219.356 324.5,218C 326.473,217.505 328.473,217.338 330.5,217.5C 330.5,216.5 330.5,215.5 330.5,214.5C 333.187,214.664 335.854,214.497 338.5,214C 339.337,212.989 339.67,211.822 339.5,210.5C 341.857,210.663 344.19,210.497 346.5,210C 349.027,206.881 352.36,205.715 356.5,206.5C 356.5,205.167 356.5,203.833 356.5,202.5C 358.527,202.662 360.527,202.495 362.5,202C 363.337,200.989 363.67,199.822 363.5,198.5C 367.819,199.201 371.486,198.034 374.5,195C 377.966,195.122 380.632,193.789 382.5,191C 387.46,189.413 392.46,187.746 397.5,186C 398.364,184.303 399.697,183.137 401.5,182.5C 402.333,180.5 403.167,178.5 404,176.5C 406.041,177.423 408.208,177.756 410.5,177.5C 410.5,176.5 410.5,175.5 410.5,174.5C 413.187,174.664 415.854,174.497 418.5,174C 419.842,171.108 422.175,169.775 425.5,170C 426.337,168.989 426.67,167.822 426.5,166.5C 429.167,166.5 431.833,166.5 434.5,166.5C 434.784,164.585 434.451,162.919 433.5,161.5C 433.5,160.833 433.833,160.5 434.5,160.5C 436.076,161.075 437.742,161.408 439.5,161.5C 443.509,160.493 447.509,159.493 451.5,158.5C 451.874,155.112 453.874,153.278 457.5,153C 456.316,151.855 456.316,150.688 457.5,149.5C 460.5,149.5 463.5,149.5 466.5,149.5C 466.5,148.5 466.5,147.5 466.5,146.5C 469.187,146.664 471.854,146.497 474.5,146C 475.167,145 475.833,144 476.5,143C 478.81,142.503 481.143,142.337 483.5,142.5C 483.5,141.167 483.5,139.833 483.5,138.5C 485.857,138.663 488.19,138.497 490.5,138C 491.337,136.989 491.67,135.822 491.5,134.5C 493.833,134.5 496.167,134.5 498.5,134.5C 498.222,132.654 498.889,131.32 500.5,130.5C 503.417,131.066 506.417,131.066 509.5,130.5 Z"/></g>
<g><path style="opacity:0.233" fill="#71ca8a" d="M 15.5,232.5 C 17.0858,233.148 18.7525,233.648 20.5,234C 21.3366,235.011 21.67,236.178 21.5,237.5C 23.5273,237.338 25.5273,237.505 27.5,238C 30.3776,240.474 33.3776,242.807 36.5,245C 38.1341,245.494 39.8008,245.66 41.5,245.5C 41.5,246.833 41.5,248.167 41.5,249.5C 43.8568,249.337 46.1902,249.503 48.5,250C 49.3366,251.011 49.67,252.178 49.5,253.5C 51.861,253.674 54.1944,254.007 56.5,254.5C 56.5,255.5 56.5,256.5 56.5,257.5C 58.1667,257.5 59.8333,257.5 61.5,257.5C 61.5,258.833 61.5,260.167 61.5,261.5C 63.8568,261.337 66.1902,261.503 68.5,262C 69.3366,263.011 69.67,264.178 69.5,265.5C 73.0053,264.891 75.672,266.058 77.5,269C 79.8127,269.662 82.146,270.162 84.5,270.5C 84.5,271.5 84.5,272.5 84.5,273.5C 87.9496,272.756 89.6162,274.09 89.5,277.5C 92.9079,276.828 95.5745,277.828 97.5,280.5C 99.4648,281.292 101.465,281.959 103.5,282.5C 104.738,284.637 106.571,285.971 109,286.5C 109.483,287.448 109.649,288.448 109.5,289.5C 111.199,289.34 112.866,289.506 114.5,290C 115.756,290.417 116.423,291.25 116.5,292.5C 114.188,294.367 111.521,294.867 108.5,294C 106.804,291.018 104.137,289.684 100.5,290C 97.6411,288.309 96.3077,285.809 96.5,282.5C 93.8333,282.5 91.1667,282.5 88.5,282.5C 88.8174,278.828 87.1507,277.162 83.5,277.5C 83.5,276.5 83.5,275.5 83.5,274.5C 80.8333,274.5 78.1667,274.5 75.5,274.5C 75.719,273.325 75.3857,272.325 74.5,271.5C 72.2906,270.894 70.124,270.227 68,269.5C 67.5172,268.552 67.3505,267.552 67.5,266.5C 65.1667,266.5 62.8333,266.5 60.5,266.5C 60.5,265.167 60.5,263.833 60.5,262.5C 58.4086,262.682 56.4086,262.348 54.5,261.5C 53.2619,259.363 51.4286,258.029 49,257.5C 48.5172,256.552 48.3505,255.552 48.5,254.5C 45.9407,254.802 43.6074,254.468 41.5,253.5C 41.6495,252.448 41.4828,251.448 41,250.5C 39.2663,249.751 37.433,249.251 35.5,249C 34.9288,247.795 34.2621,246.628 33.5,245.5C 31.9017,246.485 30.235,246.651 28.5,246C 26.6234,243.894 24.29,242.561 21.5,242C 20.6634,240.989 20.33,239.822 20.5,238.5C 14.9767,239.327 13.3101,237.327 15.5,232.5 Z"/></g>
<g><path style="opacity:0.169" fill="#91c399" d="M 311.5,273.5 C 310.5,273.5 309.5,273.5 308.5,273.5C 308.5,274.5 308.5,275.5 308.5,276.5C 306.194,276.993 303.861,277.326 301.5,277.5C 301.833,280.5 300.5,281.833 297.5,281.5C 297.833,284.5 296.5,285.833 293.5,285.5C 295.59,283.308 296.59,280.641 296.5,277.5C 297.552,277.649 298.552,277.483 299.5,277C 302.795,273.013 306.795,271.846 311.5,273.5 Z"/></g>
<g><path style="opacity:0.51" fill="#64c47f" d="M 234.5,261.5 C 234.539,262.583 234.873,263.583 235.5,264.5C 232.362,265.805 230.029,267.971 228.5,271C 224.261,273.728 219.595,275.228 214.5,275.5C 214.5,276.5 214.5,277.5 214.5,278.5C 210.786,278.013 207.786,279.179 205.5,282C 200.931,281.982 196.597,282.815 192.5,284.5C 191.081,283.995 190.415,282.995 190.5,281.5C 193.108,281.394 195.108,280.228 196.5,278C 198.5,277.667 200.5,277.333 202.5,277C 205.878,274.669 209.212,272.335 212.5,270C 214.473,269.505 216.473,269.338 218.5,269.5C 218.5,268.5 218.5,267.5 218.5,266.5C 220.806,266.007 223.139,265.674 225.5,265.5C 225.33,264.178 225.663,263.011 226.5,262C 229.146,261.503 231.813,261.336 234.5,261.5 Z"/></g>
<g><path style="opacity:0.005" fill="#c9c9c9" d="M 42.5,285.5 C 43.5,285.5 44.5,285.5 45.5,285.5C 45.5,286.5 45.5,287.5 45.5,288.5C 45.5,287.5 45.5,286.5 45.5,285.5C 44.5,285.5 43.5,285.5 42.5,285.5 Z"/></g>
<g><path style="opacity:0.678" fill="#49bd69" d="M 15.5,232.5 C 13.3101,237.327 14.9767,239.327 20.5,238.5C 20.33,239.822 20.6634,240.989 21.5,242C 24.29,242.561 26.6234,243.894 28.5,246C 30.235,246.651 31.9017,246.485 33.5,245.5C 34.2621,246.628 34.9288,247.795 35.5,249C 37.433,249.251 39.2663,249.751 41,250.5C 41.4828,251.448 41.6495,252.448 41.5,253.5C 37.7512,251.814 34.0845,249.981 30.5,248C 28.5,247.667 26.5,247.333 24.5,247C 23.6667,244.833 22.1667,243.333 20,242.5C 19.5172,241.552 19.3505,240.552 19.5,239.5C 16.8333,239.5 14.1667,239.5 11.5,239.5C 11.5,237.833 11.5,236.167 11.5,234.5C 9.14316,234.337 6.80982,234.503 4.5,235C 4.47091,239.109 6.47091,240.943 10.5,240.5C 13.6656,245.498 16.3323,250.831 18.5,256.5C 21.1871,256.341 23.5204,257.175 25.5,259C 29.8611,262.783 33.5278,267.117 36.5,272C 40.784,274.616 44.4507,277.949 47.5,282C 51.1112,282.767 54.1112,284.6 56.5,287.5C 61.3961,295.544 67.2294,302.877 74,309.5C 74.4828,310.448 74.6495,311.448 74.5,312.5C 73.1667,312.5 71.8333,312.5 70.5,312.5C 70.5,311.167 70.5,309.833 70.5,308.5C 69.5,308.5 68.5,308.5 67.5,308.5C 67.2407,304.932 65.2407,303.599 61.5,304.5C 61.2865,302.856 61.6198,301.356 62.5,300C 61.2068,299.51 59.8734,299.343 58.5,299.5C 58.5,298.5 58.5,297.5 58.5,296.5C 56.901,296.232 55.5676,296.566 54.5,297.5C 53.2921,296.766 51.9587,296.433 50.5,296.5C 50.8333,293.5 49.5,292.167 46.5,292.5C 46.5674,291.041 46.2341,289.708 45.5,288.5C 45.5,287.5 45.5,286.5 45.5,285.5C 44.5,285.5 43.5,285.5 42.5,285.5C 41.5655,284.432 41.2322,283.099 41.5,281.5C 40.1667,281.5 38.8333,281.5 37.5,281.5C 37.5,280.167 37.5,278.833 37.5,277.5C 36.1667,277.5 34.8333,277.5 33.5,277.5C 33.5,276.167 33.5,274.833 33.5,273.5C 32.1667,273.5 30.8333,273.5 29.5,273.5C 29.5,272.167 29.5,270.833 29.5,269.5C 28.1667,269.5 26.8333,269.5 25.5,269.5C 25.5,268.167 25.5,266.833 25.5,265.5C 24.1667,265.5 22.8333,265.5 21.5,265.5C 21.5,264.167 21.5,262.833 21.5,261.5C 18.5,261.833 17.1667,260.5 17.5,257.5C 14.5,257.833 13.1667,256.5 13.5,253.5C 10.5,253.833 9.16667,252.5 9.5,249.5C 9.5,247.5 9.5,245.5 9.5,243.5C 6.97516,242.36 4.30849,241.693 1.5,241.5C 1.5,237.5 1.5,233.5 1.5,229.5C 5.51383,229.334 9.51383,229.501 13.5,230C 14.3805,230.708 15.0472,231.542 15.5,232.5 Z"/></g>
<g><path style="opacity:0.439" fill="#68c582" d="M 186.5,285.5 C 186.785,287.288 186.452,288.955 185.5,290.5C 183.45,291.077 182.45,292.41 182.5,294.5C 179.833,294.5 177.167,294.5 174.5,294.5C 174.5,295.833 174.5,297.167 174.5,298.5C 171.813,298.336 169.146,298.503 166.5,299C 165.663,300.011 165.33,301.178 165.5,302.5C 163.194,302.993 160.861,303.326 158.5,303.5C 158.5,304.5 158.5,305.5 158.5,306.5C 154.141,306.861 150.475,306.195 147.5,304.5C 147.953,303.542 148.619,302.708 149.5,302C 152.146,301.503 154.813,301.336 157.5,301.5C 157.5,300.167 157.5,298.833 157.5,297.5C 160.961,298.111 163.628,296.944 165.5,294C 167.167,293.667 168.833,293.333 170.5,293C 174.167,290.667 177.833,288.333 181.5,286C 183.134,285.506 184.801,285.34 186.5,285.5 Z"/></g>
<g><path style="opacity:0.334" fill="#70ca8a" d="M 117.5,293.5 C 121.005,292.891 123.672,294.058 125.5,297C 126.793,297.49 128.127,297.657 129.5,297.5C 129.5,298.833 129.5,300.167 129.5,301.5C 131.857,301.337 134.19,301.503 136.5,302C 137.337,303.011 137.67,304.178 137.5,305.5C 140.167,305.5 142.833,305.5 145.5,305.5C 144.209,306.473 144.209,307.473 145.5,308.5C 142.914,309.48 140.247,309.813 137.5,309.5C 137.5,308.5 137.5,307.5 137.5,306.5C 134.5,306.5 131.5,306.5 128.5,306.5C 128.5,305.167 128.5,303.833 128.5,302.5C 126.139,302.326 123.806,301.993 121.5,301.5C 121.616,298.09 119.95,296.756 116.5,297.5C 116.232,295.901 116.566,294.568 117.5,293.5 Z"/></g>
<g><path style="opacity:0.318" fill="#6bc884" d="M 74.5,312.5 C 77.3882,312.22 78.8882,313.553 79,316.5C 83.0091,320.676 87.1757,324.676 91.5,328.5C 93.1823,332.737 95.5157,336.571 98.5,340C 99.448,340.483 100.448,340.649 101.5,340.5C 101.5,343.167 101.5,345.833 101.5,348.5C 100.5,348.5 99.5,348.5 98.5,348.5C 98.7373,347.209 98.404,346.209 97.5,345.5C 97.5,344.167 97.5,342.833 97.5,341.5C 96.1667,341.5 94.8333,341.5 93.5,341.5C 92.5423,340.038 91.3756,338.705 90,337.5C 89.51,336.207 89.3433,334.873 89.5,333.5C 88.1667,333.5 86.8333,333.5 85.5,333.5C 85.5,332.167 85.5,330.833 85.5,329.5C 84.1667,329.5 82.8333,329.5 81.5,329.5C 81.5,328.167 81.5,326.833 81.5,325.5C 76.5,325.167 73.8333,322.5 73.5,317.5C 72.1667,317.5 70.8333,317.5 69.5,317.5C 69.5,316.167 69.5,314.833 69.5,313.5C 66.5,313.833 65.1667,312.5 65.5,309.5C 64.1667,309.5 62.8333,309.5 61.5,309.5C 61.5,308.167 61.5,306.833 61.5,305.5C 58.0897,305.616 56.7564,303.95 57.5,300.5C 56.5,300.5 55.5,300.5 54.5,300.5C 54.5,299.5 54.5,298.5 54.5,297.5C 55.5676,296.566 56.901,296.232 58.5,296.5C 58.5,297.5 58.5,298.5 58.5,299.5C 59.8734,299.343 61.2068,299.51 62.5,300C 61.6198,301.356 61.2865,302.856 61.5,304.5C 65.2407,303.599 67.2407,304.932 67.5,308.5C 68.5,308.5 69.5,308.5 70.5,308.5C 70.5,309.833 70.5,311.167 70.5,312.5C 71.8333,312.5 73.1667,312.5 74.5,312.5 Z"/></g>
<g><path style="opacity:0.269" fill="#6cc081" d="M 222.5,331.5 C 221.365,333.213 219.698,333.88 217.5,333.5C 217.5,334.833 217.5,336.167 217.5,337.5C 214.039,336.889 211.372,338.056 209.5,341C 208.207,341.49 206.873,341.657 205.5,341.5C 205.616,344.91 203.95,346.244 200.5,345.5C 200.5,346.5 200.5,347.5 200.5,348.5C 198.784,348.629 197.117,348.962 195.5,349.5C 195.461,348.417 195.127,347.417 194.5,346.5C 196.108,345.682 197.775,345.015 199.5,344.5C 200.311,342.609 201.644,341.276 203.5,340.5C 204.429,339.311 204.762,337.978 204.5,336.5C 206.167,336.5 207.833,336.5 209.5,336.5C 209.5,335.167 209.5,333.833 209.5,332.5C 211.833,332.5 214.167,332.5 216.5,332.5C 216.5,331.5 216.5,330.5 216.5,329.5C 219.01,329.054 221.01,329.72 222.5,331.5 Z"/></g>
<g><path style="opacity:0.007" fill="#fafafa" d="M 93.5,341.5 C 94.8333,341.5 96.1667,341.5 97.5,341.5C 97.5,342.833 97.5,344.167 97.5,345.5C 95.5,344.833 94.1667,343.5 93.5,341.5 Z"/></g>
<g><path style="opacity:0.939" fill="#3db960" d="M 229.5,320.5 C 229.5,322.167 229.5,323.833 229.5,325.5C 229.67,326.822 229.337,327.989 228.5,329C 226.189,329.236 224.189,330.069 222.5,331.5C 221.01,329.72 219.01,329.054 216.5,329.5C 216.5,330.5 216.5,331.5 216.5,332.5C 214.167,332.5 211.833,332.5 209.5,332.5C 209.5,333.833 209.5,335.167 209.5,336.5C 207.833,336.5 206.167,336.5 204.5,336.5C 204.762,337.978 204.429,339.311 203.5,340.5C 201.644,341.276 200.311,342.609 199.5,344.5C 197.775,345.015 196.108,345.682 194.5,346.5C 195.127,347.417 195.461,348.417 195.5,349.5C 193.974,350.105 192.974,351.271 192.5,353C 190.753,353.352 189.086,353.852 187.5,354.5C 185.393,353.532 183.059,353.198 180.5,353.5C 180.5,354.5 180.5,355.5 180.5,356.5C 178.143,356.337 175.81,356.503 173.5,357C 172.663,358.011 172.33,359.178 172.5,360.5C 167.312,363.184 161.979,365.684 156.5,368C 155.663,369.011 155.33,370.178 155.5,371.5C 149.616,371.39 145.616,374.057 143.5,379.5C 140.017,380.084 137.017,379.251 134.5,377C 133.207,376.51 131.873,376.343 130.5,376.5C 130.5,375.167 130.5,373.833 130.5,372.5C 129.167,372.5 127.833,372.5 126.5,372.5C 126.833,369.5 125.5,368.167 122.5,368.5C 122.657,367.127 122.49,365.793 122,364.5C 120.488,363.743 119.154,362.743 118,361.5C 115.829,357.156 113.163,353.156 110,349.5C 108.6,350.748 107.1,351.748 105.5,352.5C 103.833,351.5 102.5,350.167 101.5,348.5C 101.5,345.833 101.5,343.167 101.5,340.5C 100.448,340.649 99.448,340.483 98.5,340C 95.5157,336.571 93.1823,332.737 91.5,328.5C 99.1511,337.422 107.484,345.756 116.5,353.5C 117.736,354.246 119.07,354.579 120.5,354.5C 120.351,355.552 120.517,356.552 121,357.5C 127.009,363.545 133.175,369.211 139.5,374.5C 146.722,372.219 153.055,368.385 158.5,363C 160.5,362.667 162.5,362.333 164.5,362C 165.916,359.735 167.916,358.569 170.5,358.5C 170.33,357.178 170.663,356.011 171.5,355C 178.928,350.784 186.594,346.784 194.5,343C 196.503,340.36 199.169,338.86 202.5,338.5C 205.235,334.762 208.568,331.762 212.5,329.5C 215.012,328.205 217.679,327.539 220.5,327.5C 220.5,326.5 220.5,325.5 220.5,324.5C 222.833,324.5 225.167,324.5 227.5,324.5C 227.157,322.517 227.824,321.183 229.5,320.5 Z"/></g>
<g><path style="opacity:0.075" fill="#6dc884" d="M 187.5,354.5 C 186.313,356.975 184.313,357.975 181.5,357.5C 181.5,358.833 181.5,360.167 181.5,361.5C 179.833,361.5 178.167,361.5 176.5,361.5C 176.5,362.5 176.5,363.5 176.5,364.5C 174.194,364.993 171.861,365.326 169.5,365.5C 169.5,366.833 169.5,368.167 169.5,369.5C 168.167,369.5 166.833,369.5 165.5,369.5C 165.67,370.822 165.337,371.989 164.5,373C 162.19,373.497 159.857,373.663 157.5,373.5C 157.5,374.833 157.5,376.167 157.5,377.5C 156.167,377.5 154.833,377.5 153.5,377.5C 153.567,380.766 151.901,382.266 148.5,382C 147.5,383 146.5,384 145.5,385C 141.833,385.667 138.167,385.667 134.5,385C 133.663,383.989 133.33,382.822 133.5,381.5C 132.167,381.5 130.833,381.5 129.5,381.5C 129.5,380.167 129.5,378.833 129.5,377.5C 128.167,377.5 126.833,377.5 125.5,377.5C 125.5,376.167 125.5,374.833 125.5,373.5C 122.5,373.833 121.167,372.5 121.5,369.5C 118.5,369.833 117.167,368.5 117.5,365.5C 114.5,365.833 113.167,364.5 113.5,361.5C 110.5,361.833 109.167,360.5 109.5,357.5C 106.09,357.616 104.756,355.95 105.5,352.5C 107.1,351.748 108.6,350.748 110,349.5C 113.163,353.156 115.829,357.156 118,361.5C 119.154,362.743 120.488,363.743 122,364.5C 122.49,365.793 122.657,367.127 122.5,368.5C 125.5,368.167 126.833,369.5 126.5,372.5C 127.833,372.5 129.167,372.5 130.5,372.5C 130.5,373.833 130.5,375.167 130.5,376.5C 131.873,376.343 133.207,376.51 134.5,377C 137.017,379.251 140.017,380.084 143.5,379.5C 145.616,374.057 149.616,371.39 155.5,371.5C 155.33,370.178 155.663,369.011 156.5,368C 161.979,365.684 167.312,363.184 172.5,360.5C 172.33,359.178 172.663,358.011 173.5,357C 175.81,356.503 178.143,356.337 180.5,356.5C 180.5,355.5 180.5,354.5 180.5,353.5C 183.059,353.198 185.393,353.532 187.5,354.5 Z"/></g>
</svg>
