<?xml version="1.0" encoding="UTF-8"?>
<!DOCTYPE svg PUBLIC "-//W3C//DTD SVG 1.1//EN" "http://www.w3.org/Graphics/SVG/1.1/DTD/svg11.dtd">
<svg xmlns="http://www.w3.org/2000/svg" version="1.1" width="180px" height="180px" style="shape-rendering:geometricPrecision; text-rendering:geometricPrecision; image-rendering:optimizeQuality; fill-rule:evenodd; clip-rule:evenodd" xmlns:xlink="http://www.w3.org/1999/xlink">
<g><path style="opacity:0.997" fill="#37b659" d="M 179.5,45.5 C 179.5,46.5 179.5,47.5 179.5,48.5C 141.825,74.3363 103.825,99.6696 65.5,124.5C 64.8501,124.196 64.1835,123.863 63.5,123.5C 59.7308,125.913 56.0642,128.413 52.5,131C 48.915,131.747 45.7484,130.914 43,128.5C 42.3333,127.167 41.6667,125.833 41,124.5C 35.5323,118.031 29.699,111.864 23.5,106C 22.2506,105.26 21.2506,105.427 20.5,106.5C 13.5277,99.1931 6.52769,91.8598 -0.5,84.5C -0.5,83.1667 -0.5,81.8333 -0.5,80.5C 3.05903,80.4081 6.39237,81.2415 9.5,83C 22.6625,91.6697 36.3292,99.5031 50.5,106.5C 91.9109,85.961 133.244,65.1276 174.5,44C 176.495,43.3872 178.162,43.8872 179.5,45.5 Z"/></g>
<g><path style="opacity:0.878" fill="#5ec379" d="M 65.5,124.5 C 61.0171,128.137 56.3504,131.637 51.5,135C 49.8333,135.667 48.1667,135.667 46.5,135C 37.6059,125.611 28.9392,116.111 20.5,106.5C 21.2506,105.427 22.2506,105.26 23.5,106C 29.699,111.864 35.5323,118.031 41,124.5C 41.6667,125.833 42.3333,127.167 43,128.5C 45.7484,130.914 48.915,131.747 52.5,131C 56.0642,128.413 59.7308,125.913 63.5,123.5C 64.1835,123.863 64.8501,124.196 65.5,124.5 Z"/></g>
</svg>
